<svg xmlns="http://www.w3.org/2000/svg" viewBox="0 0 44.39 74.78"><defs><style>.cls-1,.cls-2{fill:none;}.cls-1{stroke:#013047;stroke-linecap:round;stroke-linejoin:round;stroke-width:3px;}.cls-3{fill:#231f20;}</style></defs><title>Asset 12</title><g id="Layer_2" data-name="Layer 2"><g id="Layer_1-2" data-name="Layer 1"><line class="cls-1" x1="1.5" y1="37.01" x2="37.01" y2="1.5"/><line class="cls-1" x1="1.5" y1="37.76" x2="37.01" y2="73.28"/><rect class="cls-2" x="29.39" y="0.91" width="15" height="14.47"/><rect class="cls-3" x="35.92" y="11.63" width="1.5" height="2.69"/><rect class="cls-3" x="35.92" y="6.81" width="1.5" height="2.69"/><rect class="cls-3" x="35.92" y="2.01" width="1.5" height="2.69"/><rect class="cls-2" x="29.39" y="15.39" width="15" height="14.47"/><rect class="cls-3" x="35.92" y="26.1" width="1.5" height="2.69"/><rect class="cls-3" x="35.92" y="21.28" width="1.5" height="2.69"/><rect class="cls-3" x="35.92" y="16.48" width="1.5" height="2.69"/><rect class="cls-2" x="29.39" y="29.86" width="15" height="14.47"/><rect class="cls-3" x="35.92" y="40.58" width="1.5" height="2.69"/><rect class="cls-3" x="35.92" y="35.76" width="1.5" height="2.69"/><rect class="cls-3" x="35.92" y="30.96" width="1.5" height="2.69"/><rect class="cls-2" x="29.39" y="44.33" width="15" height="14.47"/><rect class="cls-3" x="35.92" y="55.05" width="1.5" height="2.69"/><rect class="cls-3" x="35.92" y="50.23" width="1.5" height="2.69"/><rect class="cls-3" x="35.92" y="45.43" width="1.5" height="2.69"/><rect class="cls-2" x="29.39" y="58.81" width="15" height="14.47"/><rect class="cls-3" x="35.92" y="69.52" width="1.5" height="2.69"/><rect class="cls-3" x="35.92" y="64.7" width="1.5" height="2.69"/><rect class="cls-3" x="35.92" y="59.9" width="1.5" height="2.69"/></g></g></svg>